<svg xmlns="http://www.w3.org/2000/svg" viewBox="0 0 900 400">
  <defs>
    <linearGradient id="primaryGrad" x1="0%" y1="0%" x2="100%" y2="100%">
      <stop offset="0%" stop-color="#667eea"/>
      <stop offset="100%" stop-color="#764ba2"/>
    </linearGradient>
    <linearGradient id="greenGrad" x1="0%" y1="0%" x2="100%" y2="100%">
      <stop offset="0%" stop-color="#11998e"/>
      <stop offset="100%" stop-color="#38ef7d"/>
    </linearGradient>
    <filter id="shadow" x="-20%" y="-20%" width="140%" height="140%">
      <feDropShadow dx="0" dy="4" stdDeviation="8" flood-opacity="0.15"/>
    </filter>
  </defs>
  
  <!-- Background -->
  <rect width="900" height="400" fill="#f8f9fa"/>
  
  <!-- Block 1: Microstock Plus -->
  <g filter="url(#shadow)">
    <rect x="40" y="60" width="220" height="280" rx="12" fill="white" stroke="#e0e0e0" stroke-width="1"/>
  </g>
  
  <!-- Header -->
  <rect x="40" y="60" width="220" height="40" rx="12" fill="url(#greenGrad)"/>
  <rect x="40" y="88" width="220" height="12" fill="url(#greenGrad)"/>
  <text x="150" y="86" text-anchor="middle" fill="white" font-family="system-ui, sans-serif" font-size="13" font-weight="600">Microstock Plus</text>
  
  <!-- Title field -->
  <text x="55" y="125" fill="#666" font-family="system-ui, sans-serif" font-size="11">Заголовок</text>
  <rect x="55" y="132" width="190" height="28" rx="4" fill="#f5f5f5" stroke="#ddd" stroke-width="1"/>
  <text x="65" y="150" fill="#333" font-family="system-ui, sans-serif" font-size="10">Pink orchid flowers in garden...</text>
  
  <!-- Description field -->
  <text x="55" y="178" fill="#666" font-family="system-ui, sans-serif" font-size="11">Описание</text>
  <rect x="55" y="185" width="190" height="40" rx="4" fill="#f5f5f5" stroke="#ddd" stroke-width="1"/>
  <text x="65" y="200" fill="#333" font-family="system-ui, sans-serif" font-size="9">Beautiful pink orchid blooming</text>
  <text x="65" y="215" fill="#333" font-family="system-ui, sans-serif" font-size="9">in greenhouse with soft bokeh...</text>
  
  <!-- Keywords -->
  <text x="55" y="245" fill="#666" font-family="system-ui, sans-serif" font-size="11">Ключевые слова</text>
  <rect x="55" y="252" width="45" height="20" rx="4" fill="#667eea" opacity="0.15"/>
  <text x="77" y="266" text-anchor="middle" fill="#667eea" font-family="system-ui, sans-serif" font-size="9">orchid</text>
  <rect x="105" y="252" width="40" height="20" rx="4" fill="#667eea" opacity="0.15"/>
  <text x="125" y="266" text-anchor="middle" fill="#667eea" font-family="system-ui, sans-serif" font-size="9">flower</text>
  <rect x="150" y="252" width="35" height="20" rx="4" fill="#667eea" opacity="0.15"/>
  <text x="167" y="266" text-anchor="middle" fill="#667eea" font-family="system-ui, sans-serif" font-size="9">pink</text>
  <rect x="190" y="252" width="50" height="20" rx="4" fill="#667eea" opacity="0.15"/>
  <text x="215" y="266" text-anchor="middle" fill="#667eea" font-family="system-ui, sans-serif" font-size="9">nature</text>
  <rect x="55" y="277" width="55" height="20" rx="4" fill="#667eea" opacity="0.15"/>
  <text x="82" y="291" text-anchor="middle" fill="#667eea" font-family="system-ui, sans-serif" font-size="9">botanical</text>
  <rect x="115" y="277" width="45" height="20" rx="4" fill="#667eea" opacity="0.15"/>
  <text x="137" y="291" text-anchor="middle" fill="#667eea" font-family="system-ui, sans-serif" font-size="9">bloom</text>
  <rect x="165" y="277" width="35" height="20" rx="4" fill="#667eea" opacity="0.15"/>
  <text x="182" y="291" text-anchor="middle" fill="#667eea" font-family="system-ui, sans-serif" font-size="9">...</text>
  
  <!-- Arrow 1 - soft curved -->
  <path d="M 270 200 Q 295 200 320 200" stroke="#667eea" stroke-width="2" fill="none" opacity="0.6"/>
  <circle cx="320" cy="200" r="4" fill="#667eea" opacity="0.6"/>
  
  <!-- Block 2: AI Fallback Chain -->
  <g filter="url(#shadow)">
    <rect x="330" y="60" width="220" height="280" rx="12" fill="white" stroke="#e0e0e0" stroke-width="1"/>
  </g>
  <rect x="330" y="60" width="220" height="40" rx="12" fill="url(#primaryGrad)"/>
  <rect x="330" y="88" width="220" height="12" fill="url(#primaryGrad)"/>
  <text x="440" y="86" text-anchor="middle" fill="white" font-family="system-ui, sans-serif" font-size="13" font-weight="600">AI Fallback Chain</text>

  <!-- Provider boxes -->
  <rect x="345" y="112" width="190" height="22" rx="4" fill="#e8f5e9"/>
  <circle cx="358" cy="123" r="5" fill="#4caf50"/>
  <text x="370" y="127" fill="#2e7d32" font-family="system-ui, sans-serif" font-size="10" font-weight="500">Groq — Llama 4 Scout</text>

  <!-- Arrow down -->
  <text x="440" y="143" text-anchor="middle" fill="#bbb" font-family="system-ui, sans-serif" font-size="10">↓ fallback</text>

  <rect x="345" y="149" width="190" height="22" rx="4" fill="#e3f2fd"/>
  <circle cx="358" cy="160" r="5" fill="#42a5f5"/>
  <text x="370" y="164" fill="#1565c0" font-family="system-ui, sans-serif" font-size="10" font-weight="500">Groq — Llama 3.1 8B</text>

  <text x="440" y="180" text-anchor="middle" fill="#bbb" font-family="system-ui, sans-serif" font-size="10">↓</text>

  <rect x="345" y="186" width="190" height="22" rx="4" fill="#fff3e0"/>
  <circle cx="358" cy="197" r="5" fill="#ffa726"/>
  <text x="370" y="201" fill="#e65100" font-family="system-ui, sans-serif" font-size="10" font-weight="500">Cloudflare Workers AI</text>

  <text x="440" y="217" text-anchor="middle" fill="#bbb" font-family="system-ui, sans-serif" font-size="10">↓</text>

  <rect x="345" y="223" width="190" height="22" rx="4" fill="#fce4ec"/>
  <circle cx="358" cy="234" r="5" fill="#ef5350"/>
  <text x="370" y="238" fill="#c62828" font-family="system-ui, sans-serif" font-size="10" font-weight="500">Google Gemini Flash</text>

  <text x="440" y="254" text-anchor="middle" fill="#bbb" font-family="system-ui, sans-serif" font-size="10">↓</text>

  <rect x="345" y="260" width="190" height="22" rx="4" fill="#f3e5f5"/>
  <circle cx="358" cy="271" r="5" fill="#ab47bc"/>
  <text x="370" y="275" fill="#7b1fa2" font-family="system-ui, sans-serif" font-size="10" font-weight="500">Mistral / DeepSeek</text>

  <!-- Summary -->
  <text x="440" y="305" text-anchor="middle" fill="#667eea" font-family="system-ui, sans-serif" font-size="10" font-weight="500">Анализирует контекст</text>
  <text x="440" y="320" text-anchor="middle" fill="#667eea" font-family="system-ui, sans-serif" font-size="10" font-weight="500">→ выбирает уточнения</text>
  
  <!-- Arrow 2 - soft curved -->
  <path d="M 560 200 Q 580 200 610 200" stroke="#667eea" stroke-width="2" fill="none" opacity="0.6"/>
  <circle cx="610" cy="200" r="4" fill="#667eea" opacity="0.6"/>
  
  <!-- Block 3: Getty Refinements -->
  <g filter="url(#shadow)">
    <rect x="620" y="60" width="240" height="280" rx="12" fill="white" stroke="#e0e0e0" stroke-width="1"/>
  </g>
  <rect x="620" y="60" width="240" height="40" rx="12" fill="url(#primaryGrad)"/>
  <rect x="620" y="88" width="240" height="12" fill="url(#primaryGrad)"/>
  <text x="740" y="86" text-anchor="middle" fill="white" font-family="system-ui, sans-serif" font-size="13" font-weight="600">Окно уточнений Getty</text>
  
  <!-- Refinement items -->
  <g>
    <rect x="635" y="115" width="210" height="32" rx="4" fill="#f8f9fa"/>
    <text x="650" y="128" fill="#666" font-family="system-ui, sans-serif" font-size="10">orchid</text>
    <rect x="720" y="120" width="16" height="16" rx="3" fill="#11998e"/>
    <text x="728" y="132" text-anchor="middle" fill="white" font-family="system-ui, sans-serif" font-size="11">✓</text>
    <text x="745" y="132" fill="#333" font-family="system-ui, sans-serif" font-size="10">Orchid (plant)</text>
  </g>
  
  <g>
    <rect x="635" y="152" width="210" height="32" rx="4" fill="#f8f9fa"/>
    <text x="650" y="165" fill="#666" font-family="system-ui, sans-serif" font-size="10">flower</text>
    <rect x="720" y="157" width="16" height="16" rx="3" fill="#11998e"/>
    <text x="728" y="169" text-anchor="middle" fill="white" font-family="system-ui, sans-serif" font-size="11">✓</text>
    <text x="745" y="169" fill="#333" font-family="system-ui, sans-serif" font-size="10">Flower</text>
  </g>
  
  <g>
    <rect x="635" y="189" width="210" height="32" rx="4" fill="#f8f9fa"/>
    <text x="650" y="202" fill="#666" font-family="system-ui, sans-serif" font-size="10">pink</text>
    <rect x="720" y="194" width="16" height="16" rx="3" fill="#11998e"/>
    <text x="728" y="206" text-anchor="middle" fill="white" font-family="system-ui, sans-serif" font-size="11">✓</text>
    <text x="745" y="206" fill="#333" font-family="system-ui, sans-serif" font-size="10">Pink (color)</text>
  </g>
  
  <g>
    <rect x="635" y="226" width="210" height="32" rx="4" fill="#f8f9fa"/>
    <text x="650" y="239" fill="#666" font-family="system-ui, sans-serif" font-size="10">pink</text>
    <rect x="720" y="231" width="16" height="16" rx="3" fill="white" stroke="#ddd" stroke-width="1"/>
    <text x="745" y="243" fill="#999" font-family="system-ui, sans-serif" font-size="10">Pink (singer)</text>
  </g>
  
  <g>
    <rect x="635" y="263" width="210" height="32" rx="4" fill="#f8f9fa"/>
    <text x="650" y="276" fill="#666" font-family="system-ui, sans-serif" font-size="10">botanical</text>
    <rect x="720" y="268" width="16" height="16" rx="3" fill="#11998e"/>
    <text x="728" y="280" text-anchor="middle" fill="white" font-family="system-ui, sans-serif" font-size="11">✓</text>
    <text x="745" y="280" fill="#333" font-family="system-ui, sans-serif" font-size="10">Botany</text>
  </g>
  
  <g>
    <rect x="635" y="300" width="210" height="32" rx="4" fill="#f8f9fa"/>
    <text x="650" y="313" fill="#666" font-family="system-ui, sans-serif" font-size="10">greenhouse</text>
    <rect x="720" y="305" width="16" height="16" rx="3" fill="#11998e"/>
    <text x="728" y="317" text-anchor="middle" fill="white" font-family="system-ui, sans-serif" font-size="11">✓</text>
    <text x="745" y="317" fill="#333" font-family="system-ui, sans-serif" font-size="10">Greenhouse</text>
  </g>
  
  <!-- Labels under blocks -->
  <text x="150" y="365" text-anchor="middle" fill="#666" font-family="system-ui, sans-serif" font-size="12">Данные файла</text>
  <text x="440" y="365" text-anchor="middle" fill="#666" font-family="system-ui, sans-serif" font-size="12">AI-анализ</text>
  <text x="740" y="365" text-anchor="middle" fill="#666" font-family="system-ui, sans-serif" font-size="12">Автоматический выбор</text>
</svg>
